<mxfile host="app.diagrams.net" modified="2020-12-23T15:59:43.773Z" agent="5.0 (Windows NT 10.0; Win64; x64) AppleWebKit/537.36 (KHTML, like Gecko) Chrome/87.0.4280.88 Safari/537.36" etag="Xt3ZHFfRp2lDhqRDY9lf" version="14.0.0" type="github">
  <diagram id="jLscS5A6hTAbZC6SvGyf" name="Search Panels">
    <mxGraphModel dx="1422" dy="705" grid="1" gridSize="10" guides="1" tooltips="1" connect="1" arrows="1" fold="1" page="1" pageScale="1" pageWidth="850" pageHeight="1100" math="0" shadow="0">
      <root>
        <mxCell id="0" />
        <mxCell id="1" parent="0" />
        <mxCell id="82dVwoIXdxWVQhs4Cjmq-16" value="Feed" style="html=1;shadow=0;dashed=0;shape=mxgraph.bootstrap.rrect;rSize=5;strokeColor=none;strokeWidth=1;fillColor=#6C767D;fontColor=#ffffff;whiteSpace=wrap;align=left;verticalAlign=middle;fontStyle=0;fontSize=14;spacingLeft=10;" vertex="1" parent="1">
          <mxGeometry x="30" y="150" width="140" height="40" as="geometry" />
        </mxCell>
        <mxCell id="82dVwoIXdxWVQhs4Cjmq-17" value="" style="shape=triangle;direction=south;fillColor=#ffffff;strokeColor=none;perimeter=none;" vertex="1" parent="82dVwoIXdxWVQhs4Cjmq-16">
          <mxGeometry x="1" y="0.5" width="10" height="5" relative="1" as="geometry">
            <mxPoint x="-17" y="-2.5" as="offset" />
          </mxGeometry>
        </mxCell>
        <mxCell id="82dVwoIXdxWVQhs4Cjmq-26" value="" style="edgeStyle=orthogonalEdgeStyle;rounded=0;orthogonalLoop=1;jettySize=auto;html=1;" edge="1" parent="1" source="82dVwoIXdxWVQhs4Cjmq-18" target="82dVwoIXdxWVQhs4Cjmq-22">
          <mxGeometry relative="1" as="geometry" />
        </mxCell>
        <mxCell id="82dVwoIXdxWVQhs4Cjmq-18" value="" style="html=1;shadow=0;dashed=0;shape=mxgraph.bootstrap.rrect;rSize=5;fillColor=#ffffff;strokeColor=#999999;" vertex="1" parent="1">
          <mxGeometry x="30" y="193" width="170" height="110" as="geometry" />
        </mxCell>
        <mxCell id="82dVwoIXdxWVQhs4Cjmq-19" value="Accounts Receivable" style="fillColor=none;strokeColor=none;align=left;spacing=20;fontSize=14;" vertex="1" parent="82dVwoIXdxWVQhs4Cjmq-18">
          <mxGeometry width="170" height="30" relative="1" as="geometry">
            <mxPoint y="10" as="offset" />
          </mxGeometry>
        </mxCell>
        <mxCell id="82dVwoIXdxWVQhs4Cjmq-20" value="Bank Log" style="fillColor=none;strokeColor=none;align=left;spacing=20;fontSize=14;" vertex="1" parent="82dVwoIXdxWVQhs4Cjmq-18">
          <mxGeometry width="170" height="30" relative="1" as="geometry">
            <mxPoint y="40" as="offset" />
          </mxGeometry>
        </mxCell>
        <mxCell id="82dVwoIXdxWVQhs4Cjmq-21" value="Billing Staff Productivity" style="fillColor=none;strokeColor=none;align=left;spacing=20;fontSize=14;" vertex="1" parent="82dVwoIXdxWVQhs4Cjmq-18">
          <mxGeometry width="170" height="30" relative="1" as="geometry">
            <mxPoint y="70" as="offset" />
          </mxGeometry>
        </mxCell>
        <mxCell id="82dVwoIXdxWVQhs4Cjmq-22" value="" style="html=1;shadow=0;dashed=0;shape=mxgraph.bootstrap.rrect;rSize=5;fillColor=#ffffff;strokeColor=#999999;" vertex="1" parent="1">
          <mxGeometry x="30" y="303" width="170" height="110" as="geometry" />
        </mxCell>
        <mxCell id="82dVwoIXdxWVQhs4Cjmq-23" value="Cash Distribution" style="fillColor=none;strokeColor=none;align=left;spacing=20;fontSize=14;" vertex="1" parent="82dVwoIXdxWVQhs4Cjmq-22">
          <mxGeometry width="170" height="30" relative="1" as="geometry">
            <mxPoint y="10" as="offset" />
          </mxGeometry>
        </mxCell>
        <mxCell id="82dVwoIXdxWVQhs4Cjmq-24" value="Charges" style="fillColor=none;strokeColor=none;align=left;spacing=20;fontSize=14;" vertex="1" parent="82dVwoIXdxWVQhs4Cjmq-22">
          <mxGeometry width="170" height="30" relative="1" as="geometry">
            <mxPoint y="40" as="offset" />
          </mxGeometry>
        </mxCell>
        <mxCell id="82dVwoIXdxWVQhs4Cjmq-25" value="Patient Staff Comments" style="fillColor=none;strokeColor=none;align=left;spacing=20;fontSize=14;" vertex="1" parent="82dVwoIXdxWVQhs4Cjmq-22">
          <mxGeometry width="170" height="30" relative="1" as="geometry">
            <mxPoint y="70" as="offset" />
          </mxGeometry>
        </mxCell>
        <mxCell id="82dVwoIXdxWVQhs4Cjmq-27" value="Diagram" style="html=1;shadow=0;dashed=0;shape=mxgraph.bootstrap.radioButton2;labelPosition=right;verticalLabelPosition=middle;align=left;verticalAlign=middle;gradientColor=#DEDEDE;fillColor=#EDEDED;checked=0;spacing=5;checkedFill=#0085FC;checkedStroke=#ffffff;" vertex="1" parent="1">
          <mxGeometry x="20" y="60" width="10" height="10" as="geometry" />
        </mxCell>
        <mxCell id="82dVwoIXdxWVQhs4Cjmq-30" value="Diagram" style="html=1;shadow=0;dashed=0;shape=mxgraph.bootstrap.radioButton2;labelPosition=right;verticalLabelPosition=middle;align=left;verticalAlign=middle;gradientColor=#DEDEDE;fillColor=#EDEDED;checked=0;spacing=5;checkedFill=#0085FC;checkedStroke=#ffffff;" vertex="1" parent="1">
          <mxGeometry x="95" y="60" width="10" height="10" as="geometry" />
        </mxCell>
      </root>
    </mxGraphModel>
  </diagram>
</mxfile>
